<?xml version="1.0" encoding="UTF-8"?><svg id="Layer_1" xmlns="http://www.w3.org/2000/svg" viewBox="0 0 600 200"><defs><style>.cls-1{fill:#333;}</style></defs><g><path class="cls-1" d="M251.23,81h5.28c.24,4.56,2.88,6.77,8.59,6.77,4.7,0,7.2-1.44,7.2-4.37,0-3.17-2.88-3.7-8.21-4.94-8.11-1.92-11.95-3.5-11.95-8.93,0-5.81,4.46-8.59,12.05-8.59,8.5,0,12.77,3.6,12.86,10.8h-5.23c-.29-4.51-2.54-6.38-7.82-6.38-4.56,0-6.67,1.3-6.67,3.98,0,2.98,2.64,3.55,8.59,4.99,7.73,1.87,11.57,3.31,11.57,8.74,0,5.86-4.46,9.26-12.82,9.26s-13.39-3.7-13.44-11.33Z"/><path class="cls-1" d="M302.16,61.27h21.36v4.32h-16.13v8.59h14.64v4.27h-14.64v9.22h16.13v4.32h-21.36v-30.72Z"/><path class="cls-1" d="M356.21,61.27h7.15l11.52,30.72h-5.62l-2.06-6h-15.07l-2.21,6h-5.52l11.81-30.72Zm9.65,20.88l-6.19-17.47-6.24,17.47h12.43Z"/><path class="cls-1" d="M399.98,65.59h-8.83v-4.32h22.8v4.32h-8.83v26.4h-5.14v-26.4Z"/><path class="cls-1" d="M442.99,65.59h-8.83v-4.32h22.8v4.32h-8.83v26.4h-5.14v-26.4Z"/><path class="cls-1" d="M479.95,61.27h5.28v26.4h11.67v4.32h-16.95v-30.72Z"/><path class="cls-1" d="M519.94,61.27h21.36v4.32h-16.13v8.59h14.64v4.27h-14.64v9.22h16.13v4.32h-21.36v-30.72Z"/></g><g><path class="cls-1" d="M250.13,128.6c0-4.2,1.44-7.82,7.32-7.82s7.32,3.62,7.32,7.87-1.39,7.82-7.32,7.82-7.32-3.67-7.32-7.87Zm7.32,5.69c3.86,0,4.66-2.52,4.66-5.64s-.79-5.69-4.66-5.69-4.63,2.5-4.63,5.64,.82,5.69,4.63,5.69Z"/><path class="cls-1" d="M271.99,129.42v-8.47h2.66v8.35c0,3.17,.72,4.85,3.86,4.85s3.89-1.68,3.89-4.85v-8.35h2.66v8.47c0,5.02-1.87,7.06-6.55,7.06s-6.53-2.04-6.53-7.06Z"/><path class="cls-1" d="M295.85,123.11h-4.42v-2.16h11.4v2.16h-4.42v13.2h-2.57v-13.2Z"/><path class="cls-1" d="M309.46,120.95h5.86c4.61,0,7.01,2.66,7.01,7.58s-2.59,7.78-7.25,7.78h-5.62v-15.36Zm5.14,13.2c3.38,0,5.16-1.49,5.16-5.64-.02-4.18-1.66-5.4-5.02-5.4h-2.66v11.04h2.52Z"/><path class="cls-1" d="M329.25,128.6c0-4.2,1.44-7.82,7.32-7.82s7.32,3.62,7.32,7.87-1.39,7.82-7.32,7.82-7.32-3.67-7.32-7.87Zm7.32,5.69c3.86,0,4.66-2.52,4.66-5.64s-.79-5.69-4.66-5.69-4.63,2.5-4.63,5.64,.82,5.69,4.63,5.69Z"/><path class="cls-1" d="M350.88,128.6c0-4.2,1.44-7.82,7.32-7.82s7.32,3.62,7.32,7.87-1.39,7.82-7.32,7.82-7.32-3.67-7.32-7.87Zm7.32,5.69c3.86,0,4.66-2.52,4.66-5.64s-.79-5.69-4.66-5.69-4.63,2.5-4.63,5.64,.82,5.69,4.63,5.69Z"/><path class="cls-1" d="M373.01,120.95h5.47c5.78,0,6.38,2.95,6.38,4.92,0,3.79-3.02,4.68-5.98,4.68l6.5,5.76h-3.55l-6.19-6.02v6.02h-2.64v-15.36Zm5.64,7.63c3.12,0,3.55-1.49,3.55-2.71s-.46-2.76-3.6-2.76h-2.95v5.47h3Z"/><path class="cls-1" d="M402.07,130.81h2.64c.12,2.28,1.44,3.38,4.3,3.38,2.35,0,3.6-.72,3.6-2.18,0-1.58-1.44-1.85-4.1-2.47-4.06-.96-5.98-1.75-5.98-4.46,0-2.9,2.23-4.3,6.02-4.3,4.25,0,6.38,1.8,6.43,5.4h-2.62c-.14-2.26-1.27-3.19-3.91-3.19-2.28,0-3.34,.65-3.34,1.99,0,1.49,1.32,1.78,4.3,2.5,3.86,.94,5.78,1.66,5.78,4.37,0,2.93-2.23,4.63-6.41,4.63s-6.7-1.85-6.72-5.66Z"/><path class="cls-1" d="M422.73,120.95h10.68v2.16h-8.06v4.3h7.32v2.14h-7.32v4.61h8.06v2.16h-10.68v-15.36Z"/><path class="cls-1" d="M440.66,120.95h5.47c5.78,0,6.38,2.95,6.38,4.92,0,3.79-3.02,4.68-5.98,4.68l6.5,5.76h-3.55l-6.19-6.02v6.02h-2.64v-15.36Zm5.64,7.63c3.12,0,3.55-1.49,3.55-2.71s-.46-2.76-3.6-2.76h-2.95v5.47h3Z"/><path class="cls-1" d="M458.28,120.95h2.81l4.78,13.42,4.82-13.42h2.83l-6.07,15.36h-3.24l-5.93-15.36Z"/><path class="cls-1" d="M479.83,120.95h2.64v15.36h-2.64v-15.36Z"/><path class="cls-1" d="M489.88,128.63c0-4.2,1.37-7.85,7.08-7.85,5.04,0,6.94,2.83,6.94,6.02h-2.71c-.14-2.16-1.25-3.84-4.22-3.84-3.62,0-4.39,2.52-4.39,5.66s.77,5.64,4.39,5.64c3,0,4.08-1.58,4.22-3.86h2.71c0,3.38-1.87,6.07-6.94,6.07-5.74,0-7.08-3.65-7.08-7.85Z"/><path class="cls-1" d="M511.2,120.95h10.68v2.16h-8.06v4.3h7.32v2.14h-7.32v4.61h8.06v2.16h-10.68v-15.36Z"/><path class="cls-1" d="M528.67,130.81h2.64c.12,2.28,1.44,3.38,4.3,3.38,2.35,0,3.6-.72,3.6-2.18,0-1.58-1.44-1.85-4.1-2.47-4.06-.96-5.98-1.75-5.98-4.46,0-2.9,2.23-4.3,6.02-4.3,4.25,0,6.38,1.8,6.43,5.4h-2.62c-.14-2.26-1.27-3.19-3.91-3.19-2.28,0-3.34,.65-3.34,1.99,0,1.49,1.32,1.78,4.3,2.5,3.86,.94,5.78,1.66,5.78,4.37,0,2.93-2.23,4.63-6.41,4.63s-6.7-1.85-6.72-5.66Z"/></g><g><g><polygon class="cls-1" points="71.83 90.21 71.83 90.22 71.83 90.21 71.83 90.21"/><path class="cls-1" d="M192.45,90.56c-.49,.27-1.05,.44-1.68,.44h0c-.46,0-.9-.09-1.31-.27-.62-.26-1.15-.69-1.53-1.26l-18.27-27.4c-1.35-2.03-4.33-2.03-5.69,0l-17.97,26.95c-.82,1.23-2.2,1.97-3.68,1.97h-19.87c-1.48,0-2.86-.74-3.68-1.97l-5.15-7.72-10.15-15.23-2.67-4c-1.35-2.03-4.33-2.03-5.69,0l-18.27,27.4c-.38,.57-.92,1-1.53,1.26-.41,.17-.85,.27-1.31,.27h0c-.84,0-1.58-.29-2.15-.76,2.61,2.3,6.36,1.53,7,.57l18.27-27.4c.26-.39,.64-.45,.84-.45s.58,.06,.84,.45l17.97,26.95c1.27,1.9,3.39,3.04,5.68,3.04h19.87c2.29,0,4.41-1.14,5.68-3.04l17.97-26.95c.26-.39,.64-.45,.84-.45s.58,.06,.84,.45l18.27,27.4c.64,.96,3.25,1.85,6.52-.25h0Z"/></g><g><path class="cls-1" d="M140.24,166.47c-37.38-1.63-76.47-31.58-87.39-66.93-4.2-15.76-.35-30.01,9.59-41.03,15.08-16.7,39.68-15.26,41.05-15.08-14.47-3.59-28.47-1.24-38.92,5.48,8.85-7.36,21.33-11.4,36.38-10.75,13.92,.61,25.61,3.96,31.84,7.84-11.15-7.42-28.61-15.07-48.93-15.96-42.15-1.84-61.26,29.25-49.05,69.13,12.21,39.88,51.63,68.91,93.78,70.74,16.68,.73,30.56-2.06,39.48-8.68-7.72,3.79-17.13,5.7-27.84,5.23Z"/><rect class="cls-1" x="155.52" y="81.8" width="9.6" height="9.6" rx="1.56" ry="1.56"/><rect class="cls-1" x="168.22" y="81.8" width="9.6" height="9.6" rx="1.56" ry="1.56"/><rect class="cls-1" x="155.52" y="94.37" width="9.6" height="9.6" rx="1.56" ry="1.56"/><rect class="cls-1" x="168.22" y="94.37" width="9.6" height="9.6" rx="1.56" ry="1.56"/><path class="cls-1" d="M109.27,83.47v-.12c0-.86-.7-1.56-1.56-1.56h-6.49c-.86,0-1.56,.7-1.56,1.56v6.49c0,.46,.2,.87,.52,1.16,.28,.25,.64,.4,1.03,.4h6.49c.4,0,.76-.15,1.03-.4,.32-.29,.52-.7,.52-1.16v-6.37Z"/><path class="cls-1" d="M96.58,89.77v-6.41c0-.86-.7-1.56-1.56-1.56h-6.49c-.86,0-1.56,.7-1.56,1.56v6.49c0,.86,.7,1.56,1.56,1.56h6.49c.16,0,.3-.03,.45-.07,.22-.07,.42-.18,.59-.33,.32-.29,.52-.7,.52-1.16v-.08Z"/><rect class="cls-1" x="99.67" y="94.37" width="9.6" height="9.6" rx="1.56" ry="1.56"/><path class="cls-1" d="M95.02,94.37h-6.49c-.86,0-1.56,.7-1.56,1.56v6.49c0,.86,.7,1.56,1.56,1.56h6.49c.16,0,.3-.03,.45-.07,.64-.19,1.11-.78,1.11-1.48v-6.49c0-.7-.47-1.29-1.11-1.48-.14-.04-.29-.07-.45-.07Z"/><path class="cls-1" d="M208.5,108.52c0-3.83-3.11-6.94-6.94-6.94-2.42,0-4.55,1.24-5.79,3.12-.7-.36-1.5-.56-2.34-.56-2.87,0-5.2,2.33-5.2,5.2,0,.4,.05,.79,.14,1.17l-4.29,1.29v4.73l7.44,1.87c.41,3.01,2.98,5.33,6.09,5.33,3.4,0,6.16-2.76,6.16-6.16,0-.83-.17-1.61-.46-2.33,2.98-.78,5.18-3.48,5.18-6.71Z"/></g><g><path class="cls-1" d="M193.62,85.69l-20.16-30.24c-1.58-2.37-4.24-3.8-7.1-3.8H98.43c-2.85,0-5.51,1.43-7.1,3.8l-20.16,30.24c-1.04,1.55-.6,3.47,.65,4.52h0s.02,.02,.03,.03c.57,.47,1.31,.76,2.15,.76h0c.46,0,.9-.09,1.31-.27,.62-.26,1.15-.69,1.53-1.26l18.27-27.4c1.35-2.03,4.33-2.03,5.69,0l2.67,4,10.15,15.23,5.15,7.72c.82,1.23,2.2,1.97,3.68,1.97h19.87c1.48,0,2.86-.74,3.68-1.97l17.97-26.95c1.35-2.03,4.33-2.03,5.69,0l18.27,27.4c.38,.57,.92,1,1.53,1.26,.41,.17,.85,.27,1.31,.27h0c.63,0,1.19-.17,1.68-.44,1.63-.92,2.33-3.12,1.17-4.87Z"/><path class="cls-1" d="M183.36,110.69l-22,1.09c-.35,.02-.63,.3-.65,.65h-44.81c-.11-.25-.31-.46-.57-.57l-2-.81c-.66-.27-1.36-.4-2.07-.4h-28.16c-.24,0-.47,.08-.66,.22l-2.22,1.66c-.45,.34-.53,.98-.17,1.42l1.51,1.86c.7,.86,.85,2.04,.36,3.04-.23,.47-.5,1-.81,1.59-1.22,2.28-2.9,4.89-3.77,6.15-.71,1.02-.34,1.78,.1,2.08l3.87,2.81c.66,.48,1.51,.39,1.48-.42,0-.05,0-.15,0-.27,.02-.39,.44-4.74,.49-5.17,.04-.29,.09-.52,.15-.68,.4-.99,1.71-3.27,2.73-5.47,.58-1.24,1.65-.93,1.98-.7,.61,.42,.51,1.2-.32,2.94-.84,1.74-.95,2.21-.49,3.62,.27,.82,1.39,1.62,1.13,.63-.56-2.13,1.63-4.41,1.95-4.78,.92-1.07,2.96-.63,3.3-.63,.59,0,1.9-1.66,3.04-3.3h14.51c.71,0,1.41-.14,2.07-.4l2-.81c.27-.11,.46-.32,.57-.57h44.81c.02,.35,.29,.63,.65,.65l22,1.09c.39,.02,.73-.3,.73-.69v-5.15c0-.4-.33-.71-.73-.69Z"/></g></g></svg>